<svg xmlns="http://www.w3.org/2000/svg" viewBox="0 0 39.82 38.68"><title>logo</title><g style="isolation:isolate"><path d="M407.53,284.46a14.44,14.44,0,0,0,1,1.14,22,22,0,0,1-3.51,2,24.12,24.12,0,0,1-2.43,1l-1.46.51h0a24.24,24.24,0,0,1-7.53-3.5,14.44,14.44,0,0,0,1-1.14l.27-.37-.16-.42a17,17,0,0,0-.94-2l.06-.09a4.74,4.74,0,0,0,.59-3.41,2.43,2.43,0,0,1,2,2.11,8,8,0,0,0,.13,1.91,1.61,1.61,0,0,0,1.4,1,1.87,1.87,0,0,0,1.57-.75,2.29,2.29,0,0,0,.39-1.72,4.1,4.1,0,0,0-1.44-2.23,15,15,0,0,1-2-1.84,4.51,4.51,0,0,1-.88-3.13,4.46,4.46,0,0,1,1.49-2.89c.49-.43,1.06-.74,1.58-1.15a2.7,2.7,0,0,0,1.07-1.55v0a3.81,3.81,0,0,1,.24,3,6.68,6.68,0,0,0-.28,3.09,1.68,1.68,0,0,0,1.1,1.26,1,1,0,0,0,.81-.11,1.5,1.5,0,0,0,.42-1.57,2,2,0,0,1,.14-1.46c.57,2.43,5.3,3,7.5,7.43a22.7,22.7,0,0,0-2.22,4.12l-.16.42Z" transform="translate(-381.12 -267.9)" style="fill:#f6921e"/><path d="M407.53,284.46a14.44,14.44,0,0,0,1,1.14,22,22,0,0,1-3.51,2,11.86,11.86,0,0,0,.38-5.52,6.78,6.78,0,0,0-2.28-4.36,2.87,2.87,0,0,1-2.81.23,3.79,3.79,0,0,1-1.9-2.16,5.71,5.71,0,0,1-.18-2.9,11.47,11.47,0,0,1,1-2.78,8.27,8.27,0,0,0,.49-1.15,2.12,2.12,0,0,0,0-1.06v0a3.81,3.81,0,0,1,.24,3,6.68,6.68,0,0,0-.28,3.09,1.68,1.68,0,0,0,1.1,1.26,1,1,0,0,0,.81-.11,1.5,1.5,0,0,0,.42-1.57,2,2,0,0,1,.14-1.46c.57,2.43,5.3,3,7.5,7.43a22.7,22.7,0,0,0-2.22,4.12l-.16.42Z" transform="translate(-381.12 -267.9)" style="fill:#fce0c3;mix-blend-mode:multiply"/><path d="M393.68,292c1-.14,2-.3,3-.48-.27-.14-.53-.29-.8-.45-3,.46-5.26.58-5.89,1-1.24.71-.63,3.63.78,3.53a36.19,36.19,0,0,0,9-2.49c-1-.45-2-.94-3-1.47C395.76,291.69,394.72,291.83,393.68,292Z" transform="translate(-381.12 -267.9)" style="fill:#2b543c"/><path d="M418,278.55a15.19,15.19,0,0,0-4.45-2.87s-.23.26-.59.71a32.92,32.92,0,0,0-4.79,7.58,22.83,22.83,0,0,0,1.54,1.73l.65.7-.16-.12a22.17,22.17,0,0,1-3.72,2.42,22.56,22.56,0,0,1-2.25,1c.58.12,1.15.21,1.7.3a27.34,27.34,0,0,0,4.66-3.4l1.09,1c.37.33.74.64,1,.82,3.64-1.43,8.24-5.45,8.24-5.45A15.16,15.16,0,0,0,418,278.55Zm-7.58,5a.59.59,0,0,1-.14-.71l3.11-4.26a.63.63,0,0,1,.27-.22.62.62,0,0,1,.7.12.81.81,0,0,1,.05,1.08l-.49.6-2.85,3.44C411,283.81,410.68,283.79,410.46,283.58Zm1.21.58,2.29-2.53,1.21-1.34a.71.71,0,1,1,1,1l-2.61,2.55-1.13,1.1a.51.51,0,0,1-.68-.08A.49.49,0,0,1,411.67,284.16Zm6.28-1.22-4.15,3.27a.58.58,0,0,1-.71-.11.53.53,0,0,1-.18-.46h0a.34.34,0,0,1,.07-.15l0,0,3.91-3.49a.81.81,0,0,1,1.08,0A.63.63,0,0,1,418,282.94Z" transform="translate(-381.12 -267.9)" style="fill:#2b543c"/><path d="M406.36,288.4a21,21,0,0,0,3.49-2.4l-.25-.18a23.47,23.47,0,0,1-6.77,3.57l.93.2A24.41,24.41,0,0,0,406.36,288.4Z" transform="translate(-381.12 -267.9)" style="fill:#2b543c"/><path d="M412.07,292a5.6,5.6,0,0,0-1.63-.39c-3.62-.51-11.89-1-18-5.76l-.25.18a20.34,20.34,0,0,0,3.49,2.39,24.77,24.77,0,0,0,4,1.72,50.7,50.7,0,0,0,8.64,1.84,51.48,51.48,0,0,1-8.7-1.62,24.56,24.56,0,0,1-4.14-1.63,22.17,22.17,0,0,1-3.72-2.42l-.16.12.65-.7a22.83,22.83,0,0,0,1.54-1.73c-1.39-3.65-5.38-8.29-5.38-8.29a13.67,13.67,0,0,0-1.32.64,13.35,13.35,0,0,0-3.13,2.23,15.3,15.3,0,0,0-2.91,4.42s4.61,4,8.25,5.45c.22-.16.54-.43.87-.72s.91-.83,1.2-1.11a27.88,27.88,0,0,0,4.67,3.41c5.82,3.45,12.71,5.33,15.18,5.5C412.7,295.6,413.31,292.68,412.07,292ZM389,286.09h0a.58.58,0,0,1-.71.11l-4.15-3.27a.63.63,0,0,1-.06-1,.82.82,0,0,1,1.09,0l3,2.67.92.82A.44.44,0,0,1,389,286.09Zm1.3-1.25a.51.51,0,0,1-.68.08l-2.28-2.22-1.46-1.43a.71.71,0,0,1,.89-1.1.37.37,0,0,1,.13.12l3.51,3.87A.49.49,0,0,1,390.29,284.84Zm.67-1.21-3.34-4a.81.81,0,0,1,.05-1.08.63.63,0,0,1,1,.1l3.1,4.26a.57.57,0,0,1-.13.71C391.39,283.79,391.1,283.81,391,283.63Z" transform="translate(-381.12 -267.9)" style="fill:#2b543c"/><path d="M390.24,287.7c-.33.29-.65.56-.87.72-3.64-1.43-8.25-5.45-8.25-5.45a15.3,15.3,0,0,1,2.91-4.42,13.35,13.35,0,0,1,3.13-2.23,3.58,3.58,0,0,0-.26.64,7.38,7.38,0,0,0-.2,2.69l.06.52a.71.71,0,0,0-.89,1.1l1.46,1.43a14.8,14.8,0,0,0,.8,1.93l-3-2.67a.82.82,0,0,0-1.09,0,.63.63,0,0,0,.06,1l4.15,3.27a.58.58,0,0,0,.71-.11h0A12.17,12.17,0,0,0,390.24,287.7Z" transform="translate(-381.12 -267.9)" style="fill:#d0dffc;mix-blend-mode:multiply"/><path d="M411.29,295.5c-2.47-.17-9.36-2.05-15.18-5.5,9.19,4.22,13.91,4.1,14.33,3.77s.57-1.94,0-2.19a5.6,5.6,0,0,1,1.63.39C413.31,292.68,412.7,295.6,411.29,295.5Z" transform="translate(-381.12 -267.9)" style="fill:#d0dffc;mix-blend-mode:multiply"/><path d="M420.94,283s-4.6,4-8.24,5.45c-.24-.18-.61-.49-1-.82a11.51,11.51,0,0,0,1.19-2,.53.53,0,0,0,.18.46.58.58,0,0,0,.71.11l4.15-3.27a.63.63,0,0,0,.05-1,.81.81,0,0,0-1.08,0L413,285.45l0,0a11.13,11.13,0,0,0,.61-1.67l2.61-2.55a.71.71,0,1,0-1-1L414,281.63a11.42,11.42,0,0,0,0-1.17c0-.09,0-.18,0-.27l.49-.6a.81.81,0,0,0-.05-1.08.62.62,0,0,0-.7-.12,10.58,10.58,0,0,0-.35-1.22,6.86,6.86,0,0,0-.35-.78c.36-.45.59-.71.59-.71a12.77,12.77,0,0,1,7.35,7.29Z" transform="translate(-381.12 -267.9)" style="fill:#cff9e1;mix-blend-mode:multiply"/><path d="M386.87,298.3a.88.88,0,0,0-.71.35,2.07,2.07,0,0,0-.24,1.16,1,1,0,0,0,.05.37l0,.12a.86.86,0,0,1-.58-.16.68.68,0,0,1-.2-.55,1.82,1.82,0,0,1,.26-.94,1.87,1.87,0,0,1,.81-.69,3.4,3.4,0,0,1,1.42-.26,3,3,0,0,1,.46,0l.74.05a2.1,2.1,0,0,0,.66-.09c0,.05,0,.14-.08.29a.89.89,0,0,1-.21.38.81.81,0,0,1-.4.21,4.66,4.66,0,0,1-1-.14l-.31,1.45h1.07l-.12.53h-1.06l-.59,2.74h-1.05Z" transform="translate(-381.12 -267.9)" style="fill:#f6921e"/><path d="M388.88,302.91a1.09,1.09,0,0,1-.32-.87,3.37,3.37,0,0,1,.21-1.1,2.51,2.51,0,0,1,.65-1,1.54,1.54,0,0,1,1.14-.44c.62,0,.93.38.93,1.16h.08a1.6,1.6,0,0,0,.55-.13,3.09,3.09,0,0,0,.57-.31l.07.2a2.06,2.06,0,0,1-.55.38,3,3,0,0,1-.74.22,3.35,3.35,0,0,1-.3,1.16,2,2,0,0,1-.62.76,1.39,1.39,0,0,1-.82.27A1.19,1.19,0,0,1,388.88,302.91Zm1.49-.58a1.7,1.7,0,0,0,.3-.54,3.47,3.47,0,0,0,.19-.77c-.13,0-.19-.13-.19-.3a.39.39,0,0,1,.22-.4.74.74,0,0,0-.07-.33.23.23,0,0,0-.21-.09c-.16,0-.31.12-.46.35a3,3,0,0,0-.36.84,2.89,2.89,0,0,0-.14.86.9.9,0,0,0,.08.47.32.32,0,0,0,.29.12A.5.5,0,0,0,390.37,302.33Z" transform="translate(-381.12 -267.9)" style="fill:#f6921e"/><path d="M392.22,302.91a1.09,1.09,0,0,1-.32-.87,3.37,3.37,0,0,1,.21-1.1,2.51,2.51,0,0,1,.65-1,1.54,1.54,0,0,1,1.14-.44c.62,0,.93.38.93,1.16h.08a1.6,1.6,0,0,0,.55-.13,3.09,3.09,0,0,0,.57-.31l.07.2a1.91,1.91,0,0,1-.55.38,3,3,0,0,1-.74.22,3.35,3.35,0,0,1-.3,1.16,2,2,0,0,1-.62.76,1.39,1.39,0,0,1-.82.27A1.21,1.21,0,0,1,392.22,302.91Zm1.49-.58a1.53,1.53,0,0,0,.3-.54,3,3,0,0,0,.19-.77c-.13,0-.19-.13-.19-.3a.39.39,0,0,1,.22-.4.74.74,0,0,0-.07-.33.23.23,0,0,0-.2-.09c-.16,0-.32.12-.47.35a3,3,0,0,0-.36.84,2.89,2.89,0,0,0-.14.86.9.9,0,0,0,.08.47.32.32,0,0,0,.29.12A.48.48,0,0,0,393.71,302.33Z" transform="translate(-381.12 -267.9)" style="fill:#f6921e"/><path d="M395.53,302.92a1.2,1.2,0,0,1-.28-.89,3.18,3.18,0,0,1,.22-1.13,2.5,2.5,0,0,1,.64-1,1.37,1.37,0,0,1,1-.41.79.79,0,0,1,.45.1.33.33,0,0,1,.14.27v0l.36-1.68,1.08-.14-.84,3.93a.85.85,0,0,0,0,.23.25.25,0,0,0,.07.21.35.35,0,0,0,.23.06.45.45,0,0,0,.35-.18,1.24,1.24,0,0,0,.24-.46h.3c-.29.87-.78,1.3-1.46,1.3a.68.68,0,0,1-.48-.16.7.7,0,0,1-.23-.46,1.91,1.91,0,0,1-.46.48,1.06,1.06,0,0,1-.62.19A.91.91,0,0,1,395.53,302.92Zm1.52-.58a.82.82,0,0,0,.24-.45v0l.36-1.67a.3.3,0,0,0-.3-.25.65.65,0,0,0-.53.34,2.75,2.75,0,0,0-.36.81,3.13,3.13,0,0,0-.13.84c0,.24,0,.4.11.47a.37.37,0,0,0,.25.1A.53.53,0,0,0,397.05,302.34Z" transform="translate(-381.12 -267.9)" style="fill:#f6921e"/><path d="M399.47,303a.93.93,0,0,1-.21-.66,3.28,3.28,0,0,1,.05-.47l.5-2.34h1.05l-.53,2.48a.85.85,0,0,0,0,.23.29.29,0,0,0,.07.21.37.37,0,0,0,.23.06.58.58,0,0,0,.4-.18,1.09,1.09,0,0,0,.26-.46h.3a2,2,0,0,1-.69,1.06,1.5,1.5,0,0,1-.84.29A.77.77,0,0,1,399.47,303Zm.65-4a.57.57,0,0,1-.17-.41.58.58,0,0,1,.17-.41.58.58,0,0,1,.82,0,.58.58,0,0,1,.17.41.58.58,0,0,1-1,.41Z" transform="translate(-381.12 -267.9)" style="fill:#f6921e"/><path d="M401.6,302.92a1.12,1.12,0,0,1-.3-.87,3.63,3.63,0,0,1,.2-1.11,2.49,2.49,0,0,1,.64-1,1.5,1.5,0,0,1,1.13-.44c.53,0,.8.23.8.7a1.23,1.23,0,0,1-.24.74,1.62,1.62,0,0,1-.61.55,2,2,0,0,1-.83.24c0,.11,0,.18,0,.22q0,.6.45.6a1,1,0,0,0,.44-.11,1.88,1.88,0,0,0,.42-.27,1.29,1.29,0,0,1-2.09.79Zm1.36-1.76a1.33,1.33,0,0,0,.4-.45,1.16,1.16,0,0,0,.15-.57q0-.3-.18-.3c-.17,0-.34.16-.51.46a4.14,4.14,0,0,0-.38,1A.84.84,0,0,0,403,301.16Z" transform="translate(-381.12 -267.9)" style="fill:#f6921e"/><path d="M406,298.18a1.47,1.47,0,0,0-.75.54,1.6,1.6,0,0,0-.26.91,1.88,1.88,0,0,0,0,.43.69.69,0,0,0,.15.31,1,1,0,0,1-.69-.19.74.74,0,0,1-.22-.59,1.65,1.65,0,0,1,.3-.95,2,2,0,0,1,.8-.7,2.34,2.34,0,0,1,1.11-.27l.29,0,.28.08.88,3.9.81-3.95h.71l-1.19,5.44h-1l-.85-3.61-.83,3.61h-.69Z" transform="translate(-381.12 -267.9)" style="fill:#f6921e"/><path d="M409.48,302.92a1.1,1.1,0,0,1-.35-.9,3.52,3.52,0,0,1,.19-1.08,2.67,2.67,0,0,1,.64-1,1.53,1.53,0,0,1,1.13-.44c.54,0,.8.23.8.7a1.3,1.3,0,0,1-.23.74,1.65,1.65,0,0,1-.62.55,2,2,0,0,1-.83.24s0,.11,0,.2a.64.64,0,0,0,.73.72,2.08,2.08,0,0,0,.89-.22,2.48,2.48,0,0,0,.82-.61l-.41-2.26h1l.29,1.57a3.77,3.77,0,0,0,.51-.65,1,1,0,0,0,.18-.5c0-.05,0-.08,0-.09h-.13a.26.26,0,0,1-.25-.11.38.38,0,0,1-.08-.26.32.32,0,0,1,.11-.28.41.41,0,0,1,.28-.1.45.45,0,0,1,.38.18.74.74,0,0,1,.13.46,1.49,1.49,0,0,1-.24.75,7,7,0,0,1-.8,1l.06.36a2,2,0,0,0,.15.5.34.34,0,0,0,.31.14.86.86,0,0,0,.24,0,.78.78,0,0,1-.26.55.85.85,0,0,1-.55.2A.67.67,0,0,1,413,303a2.06,2.06,0,0,1-.32-.79,3.25,3.25,0,0,1-1.06.74,3.14,3.14,0,0,1-1.24.28A1.47,1.47,0,0,1,409.48,302.92Zm1.31-1.76a1.41,1.41,0,0,0,.39-.45,1.16,1.16,0,0,0,.15-.57q0-.3-.18-.3c-.17,0-.34.16-.51.47a3.82,3.82,0,0,0-.37,1A.86.86,0,0,0,410.79,301.16Z" transform="translate(-381.12 -267.9)" style="fill:#f6921e"/><path d="M383.73,305.71l-.26-1a.58.58,0,0,0-.3.23.65.65,0,0,0-.11.37.49.49,0,0,0,0,.15l0,0a.34.34,0,0,1-.22-.06.25.25,0,0,1-.07-.21.48.48,0,0,1,.14-.33.91.91,0,0,1,.37-.27,1.06,1.06,0,0,1,.45-.11h.11l.23,1,.41-1h.18l-.53,1.19-.18.85h-.44Z" transform="translate(-381.12 -267.9)" style="fill:#f6921e"/><path d="M385.6,306.46a.45.45,0,0,1-.11-.33,1.31,1.31,0,0,1,.07-.41,1,1,0,0,1,.25-.39.58.58,0,0,1,.43-.17c.23,0,.35.15.35.44h0a.53.53,0,0,0,.2-.05.94.94,0,0,0,.22-.12l0,.08a.7.7,0,0,1-.21.14.77.77,0,0,1-.27.08,1.42,1.42,0,0,1-.11.44.67.67,0,0,1-.24.28.51.51,0,0,1-.31.11A.48.48,0,0,1,385.6,306.46Zm.56-.21a.53.53,0,0,0,.12-.21,1.23,1.23,0,0,0,.07-.29c-.05,0-.07-.05-.07-.11s0-.13.08-.15a.23.23,0,0,0,0-.13.08.08,0,0,0-.07,0c-.06,0-.12,0-.18.13a1.19,1.19,0,0,0-.13.32,1,1,0,0,0-.06.32.36.36,0,0,0,0,.18.16.16,0,0,0,.11,0A.19.19,0,0,0,386.16,306.25Z" transform="translate(-381.12 -267.9)" style="fill:#f6921e"/><path d="M387.82,306.49a.36.36,0,0,1-.08-.25,1.49,1.49,0,0,1,0-.17l.19-.88h.39l-.19.93a.2.2,0,0,0,0,.07c0,.08,0,.12.08.12a.15.15,0,0,0,.13-.07.39.39,0,0,0,.09-.17l.19-.88H389l-.2.93s0,.05,0,.09a.08.08,0,0,0,0,.07s0,0,.08,0a.21.21,0,0,0,.14-.07.87.87,0,0,0,.09-.17h.11a.83.83,0,0,1-.25.4.51.51,0,0,1-.3.1.29.29,0,0,1-.19-.06.37.37,0,0,1-.08-.2.58.58,0,0,1-.2.21.46.46,0,0,1-.2.05A.33.33,0,0,1,387.82,306.49Z" transform="translate(-381.12 -267.9)" style="fill:#f6921e"/><path d="M390.37,305.19h.39l0,.17a.86.86,0,0,1,.17-.13.29.29,0,0,1,.16,0,.18.18,0,0,1,.14.06.24.24,0,0,1,.05.14.22.22,0,0,1-.05.14.2.2,0,0,1-.15.06s-.07,0-.08,0a.34.34,0,0,1,0-.08s0,0,0-.05,0,0,0,0a.12.12,0,0,0-.09,0,.48.48,0,0,0-.11.08l-.22,1h-.39Z" transform="translate(-381.12 -267.9)" style="fill:#f6921e"/><path d="M395.2,305.42l-.07.34h.26l0,.21h-.26l-.11.51h-.19l.1-.51h-.35l-.11.51h-.2l.11-.51h-.29l0-.21h.29l.07-.34h-.28l0-.21h.28l.1-.5h.2l-.1.5H395l.1-.5h.2l-.1.5h.27l0,.21Zm-.2,0h-.35l-.07.34h.35Z" transform="translate(-381.12 -267.9)" style="fill:#f6921e"/><path d="M397.15,304.85h-.26l0-.13a1.15,1.15,0,0,0,.31,0,1.49,1.49,0,0,0,.38-.17l-.43,2.05h-.4Z" transform="translate(-381.12 -267.9)" style="fill:#f6921e"/><path d="M400.32,306.49a.36.36,0,0,1-.08-.25.67.67,0,0,1,0-.17l.16-.77h-.09l0-.11h.09l.08-.38.41-.05-.09.43H401l0,.11h-.17l-.17.82a.25.25,0,0,0,0,.09.12.12,0,0,0,0,.07.12.12,0,0,0,.09,0,.26.26,0,0,0,.15-.07.4.4,0,0,0,.1-.17h.11a.77.77,0,0,1-.26.4.54.54,0,0,1-.31.1A.33.33,0,0,1,400.32,306.49Z" transform="translate(-381.12 -267.9)" style="fill:#f6921e"/><path d="M402.1,306.46a.45.45,0,0,1-.1-.33,1.3,1.3,0,0,1,.08-.42.88.88,0,0,1,.24-.38.55.55,0,0,1,.38-.16.35.35,0,0,1,.17,0,.11.11,0,0,1,.05.1v0l0-.14h.4l-.2.93a.25.25,0,0,0,0,.09.1.1,0,0,0,.11.11.15.15,0,0,0,.13-.07.51.51,0,0,0,.09-.18h.12a.83.83,0,0,1-.25.4.51.51,0,0,1-.3.1.29.29,0,0,1-.19-.06.37.37,0,0,1-.08-.19.62.62,0,0,1-.18.18.35.35,0,0,1-.23.07A.33.33,0,0,1,402.1,306.46Zm.58-.22a.39.39,0,0,0,.09-.17l.13-.62a.09.09,0,0,0,0-.07.1.1,0,0,0-.08,0,.26.26,0,0,0-.2.13,1.26,1.26,0,0,0-.14.31,1.32,1.32,0,0,0-.05.31.34.34,0,0,0,0,.18.18.18,0,0,0,.1,0A.19.19,0,0,0,402.68,306.24Z" transform="translate(-381.12 -267.9)" style="fill:#f6921e"/><path d="M404.6,306.52a.33.33,0,0,1-.13-.13.33.33,0,0,1,0-.17.29.29,0,0,1,0-.16.28.28,0,0,1,.1-.09c.07-.13.13-.26.19-.39l.15-.42.4-.06c0,.24,0,.49.05.76,0,.11,0,.19,0,.24a.31.31,0,0,1,0,.1l.2-.13h.11a1.6,1.6,0,0,1-.42.34.41.41,0,0,1-.19.12.67.67,0,0,1-.24,0A.51.51,0,0,1,404.6,306.52Zm.31-.22a.28.28,0,0,0,.07-.2c0-.05,0-.13,0-.23s0-.35,0-.42a2.35,2.35,0,0,1-.22.52.1.1,0,0,1,.06.1.16.16,0,0,1,0,.09.1.1,0,0,1-.09,0,.07.07,0,0,1-.07,0,.21.21,0,0,0,0,.15.17.17,0,0,0,.13.05A.27.27,0,0,0,404.91,306.3Z" transform="translate(-381.12 -267.9)" style="fill:#f6921e"/><path d="M406.66,306.49a.32.32,0,0,1-.09-.25.67.67,0,0,1,0-.17l.16-.77h-.09l0-.11h.09l.08-.38.41-.05-.09.43h.16l0,.11h-.17l-.17.82a.25.25,0,0,0,0,.09.12.12,0,0,0,0,.07.12.12,0,0,0,.09,0,.26.26,0,0,0,.15-.07.4.4,0,0,0,.1-.17h.11a.77.77,0,0,1-.26.4.54.54,0,0,1-.31.1A.29.29,0,0,1,406.66,306.49Z" transform="translate(-381.12 -267.9)" style="fill:#f6921e"/><path d="M408.44,306.47a.45.45,0,0,1-.11-.33,1.67,1.67,0,0,1,.07-.42.9.9,0,0,1,.25-.39.57.57,0,0,1,.42-.17q.3,0,.3.27a.49.49,0,0,1-.09.28.64.64,0,0,1-.23.2.59.59,0,0,1-.31.09v.11a.26.26,0,0,0,0,.18.17.17,0,0,0,.15,0,.44.44,0,0,0,.26-.07,1.25,1.25,0,0,0,.23-.2h.09a.88.88,0,0,1-.75.5A.46.46,0,0,1,408.44,306.47Zm.52-.67a.39.39,0,0,0,.14-.17.37.37,0,0,0,.06-.21c0-.07,0-.11-.07-.11s-.13.06-.19.17a1.64,1.64,0,0,0-.14.39A.4.4,0,0,0,409,305.8Z" transform="translate(-381.12 -267.9)" style="fill:#f6921e"/><path d="M410.54,306.48a.33.33,0,0,1-.1-.26.39.39,0,0,1,0-.15l.29-1.37.4-.06-.13.62.13-.07h.1c.21,0,.32.16.32.47a1.53,1.53,0,0,1-.07.4.91.91,0,0,1-.24.37.65.65,0,0,1-.44.15A.39.39,0,0,1,410.54,306.48Zm.59-.28a.89.89,0,0,0,.12-.26,1.13,1.13,0,0,0,0-.3.36.36,0,0,0,0-.19.11.11,0,0,0-.1-.08l-.09,0a.09.09,0,0,0-.07,0l-.15.7a.13.13,0,0,0,0,.06.12.12,0,0,0,.14.13A.21.21,0,0,0,411.13,306.2Z" transform="translate(-381.12 -267.9)" style="fill:#f6921e"/><path d="M412.77,306.49a.32.32,0,0,1-.08-.25.59.59,0,0,1,0-.17l.19-.88h.39l-.2.93s0,.05,0,.07,0,.12.09.12a.16.16,0,0,0,.13-.07.54.54,0,0,0,.08-.17l.19-.88H414l-.19.93a.25.25,0,0,0,0,.09.12.12,0,0,0,0,.07.12.12,0,0,0,.09,0,.19.19,0,0,0,.13-.07.39.39,0,0,0,.09-.17h.12a.92.92,0,0,1-.25.4.51.51,0,0,1-.3.1.29.29,0,0,1-.19-.06.31.31,0,0,1-.09-.2.56.56,0,0,1-.19.21.54.54,0,0,1-.21.05A.29.29,0,0,1,412.77,306.49Z" transform="translate(-381.12 -267.9)" style="fill:#f6921e"/><path d="M415.2,306.46a.45.45,0,0,1-.11-.33,1.3,1.3,0,0,1,.08-.42,1,1,0,0,1,.25-.38.53.53,0,0,1,.38-.16.31.31,0,0,1,.16,0,.12.12,0,0,1,.06.1h0l.13-.62.41-.06-.32,1.48s0,.05,0,.08a.1.1,0,0,0,.11.11l.09,0a.3.3,0,0,1-.1.21.27.27,0,0,1-.2.07.35.35,0,0,1-.18-.05.27.27,0,0,1-.1-.18.46.46,0,0,1-.39.23A.31.31,0,0,1,415.2,306.46Zm.56-.21a.28.28,0,0,0,.09-.14v0l.13-.63a.11.11,0,0,0-.11-.1.24.24,0,0,0-.19.13,1,1,0,0,0-.14.31,1.32,1.32,0,0,0-.05.31.26.26,0,0,0,0,.18.15.15,0,0,0,.1,0A.17.17,0,0,0,415.76,306.25Z" transform="translate(-381.12 -267.9)" style="fill:#f6921e"/></g></svg>